<svg width="300" height="200" viewBox="0 0 300 200" fill="none" xmlns="http://www.w3.org/2000/svg">
<g id="cloud svg 1">
<g id="layer1">
<g id="g6986">
<path id="path6804" d="M146.088 15.0048C145.197 15.0145 144.3 15.0455 143.401 15.1035C132.2 15.8267 121.885 20.4202 113.881 27.5103C104.323 20.0896 92.2678 15.9158 79.4047 16.7478C59.1689 18.0541 41.8059 31.9765 35.7787 50.4684C19.8802 56.5163 8.0775 71.8338 6.8517 89.5767C6.02078 101.603 9.95537 112.869 16.9438 121.762C16.8754 122.376 16.8221 122.996 16.7793 123.616C14.9447 150.168 36.3334 173.041 62.5571 174.733C68.3343 175.106 73.9533 174.476 79.2528 172.989C87.1338 179.667 97.1335 183.973 107.949 184.671C121.861 185.569 134.834 180.603 144.72 172.023C152.945 180.052 163.975 185.308 176.028 186.086C192.371 187.141 207.422 180.108 217.691 168.622C223.205 171.26 229.266 172.908 235.605 173.317C264.382 175.175 289.133 151.963 290.86 123.513C291.453 113.755 289.353 104.3 285.189 95.9136C285.916 93.1937 286.405 90.3873 286.604 87.5106C288.061 66.4316 274.877 47.6652 256.262 39.9777C245.988 28.3066 230.816 21.1312 214.324 22.1959C203.658 22.8845 193.786 27.072 185.957 33.5935C176.228 22.151 161.868 14.8285 146.094 14.9998L146.088 15.0048Z" fill="url(#paint0_linear)" stroke="#7CA2CE" stroke-width="0.35103"/>
<path id="path6968" d="M146.116 16.9916C145.24 17.0012 144.356 17.0317 143.471 17.0888C132.449 17.8004 122.298 22.3209 114.422 29.298C105.014 21.9983 93.1509 17.8905 80.4924 18.7077C60.5785 19.9933 43.4904 33.6939 37.5615 51.892C21.9157 57.8437 10.3008 72.9176 9.0947 90.3754C9.01956 91.4629 8.984 92.5403 8.98675 93.614C73.2147 80.8298 166.771 71.5328 284.5 85.291C284.532 65.8043 271.948 48.7629 254.532 41.5703C244.422 30.0849 229.492 23.0236 213.262 24.0714C202.765 24.7491 193.05 28.87 185.345 35.2875C175.771 24.0268 161.64 16.8209 146.114 16.9897L146.116 16.9916Z" fill="url(#paint1_linear)"/>
</g>
</g>
</g>
<defs>
<linearGradient id="paint0_linear" x1="147.428" y1="-36.0398" x2="158.805" y2="191.841" gradientUnits="userSpaceOnUse">
<stop stop-color="white"/>
<stop offset="1" stop-color="#C3E0F0"/>
</linearGradient>
<linearGradient id="paint1_linear" x1="145.343" y1="29.6871" x2="148.484" y2="104.711" gradientUnits="userSpaceOnUse">
<stop stop-color="white" stop-opacity="0.85246"/>
<stop offset="1" stop-color="#AAEEFF" stop-opacity="0"/>
</linearGradient>
</defs>
</svg>
